{"accessors" : [{"bufferView" : 0, "byteOffset" : 0, "componentType" : 5123, "count" : 42, "type" : "SCALAR", "max" : [41], "min" : [0]}, {"bufferView" : 1, "byteOffset" : 0, "componentType" : 5126, "count" : 42, "type" : "VEC3", "max" : [3.914578938779556E-10, -0.1551537662744522, 0.06499999016523361], "min" : [-0.12999999523162842, -0.39179620146751404, -0.11753921210765839], "name" : "POSITION"}, {"bufferView" : 1, "byteOffset" : 12, "componentType" : 5126, "count" : 42, "type" : "VEC3", "max" : [1.0000044107437134, 0.25056391954421997, 0.9681046605110168], "min" : [-1.0000044107437134, -0.9681046605110168, -0.9681046605110168], "name" : "NORMAL"}, {"bufferView" : 1, "byteOffset" : 24, "componentType" : 5126, "count" : 42, "type" : "VEC2", "max" : [5.118110179901123, 16.425046920776367], "min" : [-5.118110179901123, 0.0531197190284729], "name" : "TEXCOORD_0"}, {"bufferView" : 0, "byteOffset" : 84, "componentType" : 5123, "count" : 12, "type" : "SCALAR", "max" : [11], "min" : [0]}, {"bufferView" : 2, "byteOffset" : 0, "componentType" : 5126, "count" : 12, "type" : "VEC3", "max" : [2.0213519714377265E-14, 2.707167856703783E-16, 0.06499999761581421], "min" : [-0.12999999523162842, -0.06499999761581421, -0.0650000050663948], "name" : "POSITION"}, {"bufferView" : 2, "byteOffset" : 12, "componentType" : 5126, "count" : 12, "type" : "VEC3", "max" : [0, 1.0000044107437134, -0], "min" : [-0.7071098685264587, 0.7071098685264587, -0], "name" : "NORMAL"}, {"bufferView" : 2, "byteOffset" : 24, "componentType" : 5126, "count" : 12, "type" : "VEC2", "max" : [2.5590550899505615, 6.42857551574707], "min" : [-2.5590550899505615, -1.5590553283691406], "name" : "TEXCOORD_0"}, {"bufferView" : 0, "byteOffset" : 108, "componentType" : 5123, "count" : 30, "type" : "SCALAR", "max" : [28], "min" : [0]}, {"bufferView" : 3, "byteOffset" : 0, "componentType" : 5126, "count" : 29, "type" : "VEC3", "max" : [2.0213519714377265E-14, 2.707167856703783E-16, 0.06499999761581421], "min" : [-0.12999999523162842, -0.18880024552345276, -0.0650000050663948], "name" : "POSITION"}, {"bufferView" : 3, "byteOffset" : 12, "componentType" : 5126, "count" : 29, "type" : "VEC3", "max" : [1.0000044107437134, 0, 1.0000044107437134], "min" : [-1.0000044107437134, 0, -1.0000044107437134], "name" : "NORMAL"}, {"bufferView" : 3, "byteOffset" : 24, "componentType" : 5126, "count" : 29, "type" : "VEC2", "max" : [5.118110179901123, 8.433080673217773], "min" : [-5.118110179901123, 1], "name" : "TEXCOORD_0"}, {"bufferView" : 0, "byteOffset" : 168, "componentType" : 5123, "count" : 42, "type" : "SCALAR", "max" : [40], "min" : [0]}, {"bufferView" : 4, "byteOffset" : 0, "componentType" : 5126, "count" : 41, "type" : "VEC3", "max" : [0.11159200221300125, -0.13318400084972382, 0.055796001106500626], "min" : [-3.36009331469711E-10, -0.33631783723831177, -0.10089566558599472], "name" : "POSITION"}, {"bufferView" : 4, "byteOffset" : 12, "componentType" : 5126, "count" : 41, "type" : "VEC3", "max" : [1.0000044107437134, 0.25056391954421997, 0.9681046605110168], "min" : [-1.0000044107437134, -0.9681046605110168, -0.9681046605110168], "name" : "NORMAL"}, {"bufferView" : 4, "byteOffset" : 24, "componentType" : 5126, "count" : 41, "type" : "VEC2", "max" : [4.393385887145996, 14.240859985351562], "min" : [-4.393385887145996, 0.18719804286956787], "name" : "TEXCOORD_0"}, {"bufferView" : 0, "byteOffset" : 252, "componentType" : 5123, "count" : 30, "type" : "SCALAR", "max" : [28], "min" : [0]}, {"bufferView" : 5, "byteOffset" : 0, "componentType" : 5126, "count" : 29, "type" : "VEC3", "max" : [0.11159200221300125, 1.804778527019556E-16, 0.055796001106500626], "min" : [0, -0.16206613183021545, -0.055796001106500626], "name" : "POSITION"}, {"bufferView" : 5, "byteOffset" : 12, "componentType" : 5126, "count" : 29, "type" : "VEC3", "max" : [1.0000044107437134, 0, 1.0000044107437134], "min" : [-1.0000044107437134, 0, -1.0000044107437134], "name" : "NORMAL"}, {"bufferView" : 5, "byteOffset" : 24, "componentType" : 5126, "count" : 29, "type" : "VEC2", "max" : [4.393385887145996, 7.380556583404541], "min" : [-4.393385887145996, 1], "name" : "TEXCOORD_0"}, {"bufferView" : 0, "byteOffset" : 312, "componentType" : 5123, "count" : 12, "type" : "SCALAR", "max" : [11], "min" : [0]}, {"bufferView" : 6, "byteOffset" : 0, "componentType" : 5126, "count" : 12, "type" : "VEC3", "max" : [0.11159200221300125, 1.804778527019556E-16, 0.055796001106500626], "min" : [0, -0.055796001106500626, -0.055796001106500626], "name" : "POSITION"}, {"bufferView" : 6, "byteOffset" : 12, "componentType" : 5126, "count" : 12, "type" : "VEC3", "max" : [0.7071098685264587, 1.0000044107437134, -0], "min" : [0, 0.7071098685264587, -0], "name" : "NORMAL"}, {"bufferView" : 6, "byteOffset" : 24, "componentType" : 5126, "count" : 12, "type" : "VEC2", "max" : [2.196692943572998, 5.659889221191406], "min" : [-2.196692943572998, -1.196692943572998], "name" : "TEXCOORD_0"}, {"bufferView" : 0, "byteOffset" : 336, "componentType" : 5123, "count" : 84, "type" : "SCALAR", "max" : [81], "min" : [0]}, {"bufferView" : 7, "byteOffset" : 0, "componentType" : 5126, "count" : 82, "type" : "VEC3", "max" : [0.12999999523162842, 0.3100000023841858, 0.20000000298023224], "min" : [-0.12999999523162842, 0, -0.12999999523162842], "name" : "POSITION"}, {"bufferView" : 7, "byteOffset" : 12, "componentType" : 5126, "count" : 82, "type" : "VEC3", "max" : [1.0000044107437134, 0, 1.0000044107437134], "min" : [-1.0000044107437134, -1.0000044107437134, -1.0000044107437134], "name" : "NORMAL"}, {"bufferView" : 7, "byteOffset" : 24, "componentType" : 5126, "count" : 82, "type" : "VEC2", "max" : [5.118110179901123, 6.905511856079102], "min" : [-5.118110179901123, -11.204724311828613], "name" : "TEXCOORD_0"}, {"bufferView" : 0, "byteOffset" : 504, "componentType" : 5123, "count" : 66, "type" : "SCALAR", "max" : [64], "min" : [0]}, {"bufferView" : 8, "byteOffset" : 0, "componentType" : 5126, "count" : 65, "type" : "VEC3", "max" : [0.12999999523162842, 0.3100000023841858, 0.20000000298023224], "min" : [-0.12999999523162842, 0.06101793050765991, -0.12999999523162842], "name" : "POSITION"}, {"bufferView" : 8, "byteOffset" : 12, "componentType" : 5126, "count" : 65, "type" : "VEC3", "max" : [1.0000044107437134, 1.0000044107437134, -0], "min" : [-1.0000044107437134, -0.2900567650794983, -1.0000044107437134], "name" : "NORMAL"}, {"bufferView" : 8, "byteOffset" : 24, "componentType" : 5126, "count" : 65, "type" : "VEC2", "max" : [7.874015808105469, 8.874015808105469], "min" : [-7.874015808105469, -11.204724311828613], "name" : "TEXCOORD_0"}, {"bufferView" : 0, "byteOffset" : 636, "componentType" : 5123, "count" : 66, "type" : "SCALAR", "max" : [62], "min" : [0]}, {"bufferView" : 9, "byteOffset" : 0, "componentType" : 5126, "count" : 63, "type" : "VEC3", "max" : [0.12999999523162842, 0.25999999046325684, 0.10000000149011612], "min" : [-0.12999999523162842, 0.06101793050765991, -0.12999999523162842], "name" : "POSITION"}, {"bufferView" : 9, "byteOffset" : 12, "componentType" : 5126, "count" : 63, "type" : "VEC3", "max" : [1.0000044107437134, 1.0000044107437134, 1.0000044107437134], "min" : [-1.0000044107437134, 0, -1.0000044107437134], "name" : "NORMAL"}, {"bufferView" : 9, "byteOffset" : 24, "componentType" : 5126, "count" : 63, "type" : "VEC2", "max" : [5.118110179901123, 4.937007904052734], "min" : [-5.118110179901123, -9.236220359802246], "name" : "TEXCOORD_0"}, {"bufferView" : 0, "byteOffset" : 768, "componentType" : 5123, "count" : 282, "type" : "SCALAR", "max" : [266], "min" : [0]}, {"bufferView" : 10, "byteOffset" : 0, "componentType" : 5126, "count" : 267, "type" : "VEC3", "max" : [0.7307692170143127, 1.384615421295166, 0.5], "min" : [-0.7307692170143127, 0, -0.5], "name" : "POSITION"}, {"bufferView" : 10, "byteOffset" : 12, "componentType" : 5126, "count" : 267, "type" : "VEC3", "max" : [1.0000044107437134, 1.0000044107437134, 1.0000044107437134], "min" : [-1.0000044107437134, -1.0000044107437134, -1.0000044107437134], "name" : "NORMAL"}, {"bufferView" : 10, "byteOffset" : 24, "componentType" : 5126, "count" : 267, "type" : "VEC2", "max" : [28.770442962646484, 25.4057674407959], "min" : [-28.770442962646484, -53.51241683959961], "name" : "TEXCOORD_0"}, {"bufferView" : 0, "byteOffset" : 1332, "componentType" : 5123, "count" : 6, "type" : "SCALAR", "max" : [5], "min" : [0]}, {"bufferView" : 11, "byteOffset" : 0, "componentType" : 5126, "count" : 6, "type" : "VEC3", "max" : [0.1339634358882904, 0.21208496391773224, -0.5], "min" : [-0.1339634358882904, 0.11872120201587677, -0.5], "name" : "POSITION"}, {"bufferView" : 11, "byteOffset" : 12, "componentType" : 5126, "count" : 6, "type" : "VEC3", "max" : [0, 0, -1.0000044107437134], "min" : [0, 0, -1.0000044107437134], "name" : "NORMAL"}, {"bufferView" : 11, "byteOffset" : 24, "componentType" : 5126, "count" : 6, "type" : "VEC2", "max" : [5.27415132522583, -3.674063205718994], "min" : [-5.27415132522583, -7.349802017211914], "name" : "TEXCOORD_0"}, {"bufferView" : 0, "byteOffset" : 1344, "componentType" : 5123, "count" : 12, "type" : "SCALAR", "max" : [11], "min" : [0]}, {"bufferView" : 12, "byteOffset" : 0, "componentType" : 5126, "count" : 12, "type" : "VEC3", "max" : [0.35570403933525085, 0.5492101907730103, -0.5], "min" : [-0.35570403933525085, 0.31791940331459045, -0.5], "name" : "POSITION"}, {"bufferView" : 12, "byteOffset" : 12, "componentType" : 5126, "count" : 12, "type" : "VEC3", "max" : [0, 0, -1.0000044107437134], "min" : [0, 0, -1.0000044107437134], "name" : "NORMAL"}, {"bufferView" : 12, "byteOffset" : 24, "componentType" : 5126, "count" : 12, "type" : "VEC2", "max" : [14.004096031188965, -11.516511917114258], "min" : [-14.004096031188965, -20.622447967529297], "name" : "TEXCOORD_0"}, {"bufferView" : 0, "byteOffset" : 1368, "componentType" : 5123, "count" : 30, "type" : "SCALAR", "max" : [29], "min" : [0]}, {"bufferView" : 13, "byteOffset" : 0, "componentType" : 5126, "count" : 30, "type" : "VEC3", "max" : [0.11159200221300125, 0, 0.055796001106500626], "min" : [0, -0.09435008466243744, -0.06579600274562836], "name" : "POSITION"}, {"bufferView" : 13, "byteOffset" : 12, "componentType" : 5126, "count" : 30, "type" : "VEC3", "max" : [1.0000044107437134, 1.0000044107437134, 0.9998703002929688], "min" : [-1.0000044107437134, -0.01637396030128002, -0.9944345355033875], "name" : "NORMAL"}, {"bufferView" : 13, "byteOffset" : 24, "componentType" : 5126, "count" : 30, "type" : "VEC2", "max" : [4.393385887145996, 4.966902732849121], "min" : [-4.393385887145996, -1.196692943572998], "name" : "TEXCOORD_0"}, {"bufferView" : 0, "byteOffset" : 1428, "componentType" : 5123, "count" : 60, "type" : "SCALAR", "max" : [57], "min" : [0]}, {"bufferView" : 14, "byteOffset" : 0, "componentType" : 5126, "count" : 58, "type" : "VEC3", "max" : [0.11159200221300125, -0.09435008466243744, 0.07579599320888519], "min" : [0, -0.2231840044260025, -0.10000000149011612], "name" : "POSITION"}, {"bufferView" : 14, "byteOffset" : 12, "componentType" : 5126, "count" : 58, "type" : "VEC3", "max" : [1.0000044107437134, 1.0000044107437134, 0.9960132837295532], "min" : [-1.0000044107437134, -0.16475698351860046, -1.0000044107437134], "name" : "NORMAL"}, {"bufferView" : 14, "byteOffset" : 24, "componentType" : 5126, "count" : 58, "type" : "VEC2", "max" : [4.393385887145996, 10.018046379089355], "min" : [-4.393385887145996, -2.9370079040527344], "name" : "TEXCOORD_0"}, {"bufferView" : 0, "byteOffset" : 1548, "componentType" : 5123, "count" : 6, "type" : "SCALAR", "max" : [5], "min" : [0]}, {"bufferView" : 15, "byteOffset" : 0, "componentType" : 5126, "count" : 6, "type" : "VEC3", "max" : [0.11159200221300125, -0.2231840044260025, 0.07579599320888519], "min" : [0, -0.2231840044260025, -0.10000000149011612], "name" : "POSITION"}, {"bufferView" : 15, "byteOffset" : 12, "componentType" : 5126, "count" : 6, "type" : "VEC3", "max" : [0, -1.0000044107437134, -0], "min" : [0, -1.0000044107437134, -0], "name" : "NORMAL"}, {"bufferView" : 15, "byteOffset" : 24, "componentType" : 5126, "count" : 6, "type" : "VEC2", "max" : [0, 3.9840943813323975], "min" : [-4.393385887145996, -2.9370079040527344], "name" : "TEXCOORD_0"}, {"bufferView" : 0, "byteOffset" : 1560, "componentType" : 5123, "count" : 60, "type" : "SCALAR", "max" : [57], "min" : [0]}, {"bufferView" : 16, "byteOffset" : 0, "componentType" : 5126, "count" : 58, "type" : "VEC3", "max" : [2.8876456432312897E-15, -0.1099138930439949, 0.08829915523529053], "min" : [-0.12999999523162842, -0.25999999046325684, -0.11649581044912338], "name" : "POSITION"}, {"bufferView" : 16, "byteOffset" : 12, "componentType" : 5126, "count" : 58, "type" : "VEC3", "max" : [1.0000044107437134, 1.0000044107437134, 0.9960132837295532], "min" : [-1.0000044107437134, -0.16475698351860046, -1.0000044107437134], "name" : "NORMAL"}, {"bufferView" : 16, "byteOffset" : 24, "componentType" : 5126, "count" : 58, "type" : "VEC2", "max" : [5.118110179901123, 11.505645751953125], "min" : [-5.118110179901123, -3.586449146270752], "name" : "TEXCOORD_0"}, {"bufferView" : 0, "byteOffset" : 1680, "componentType" : 5123, "count" : 30, "type" : "SCALAR", "max" : [29], "min" : [0]}, {"bufferView" : 17, "byteOffset" : 0, "componentType" : 5126, "count" : 30, "type" : "VEC3", "max" : [2.8876456432312897E-15, 1.3535839283518916E-16, 0.06499999761581421], "min" : [-0.12999999523162842, -0.1099138930439949, -0.07664957642555237], "name" : "POSITION"}, {"bufferView" : 17, "byteOffset" : 12, "componentType" : 5126, "count" : 30, "type" : "VEC3", "max" : [1.0000044107437134, 1.0000044107437134, 0.9998703002929688], "min" : [-1.0000044107437134, -0.01637396030128002, -0.9944345355033875], "name" : "NORMAL"}, {"bufferView" : 17, "byteOffset" : 24, "componentType" : 5126, "count" : 30, "type" : "VEC2", "max" : [5.118110179901123, 5.621275424957275], "min" : [-5.118110179901123, -1.5590550899505615], "name" : "TEXCOORD_0"}, {"bufferView" : 0, "byteOffset" : 1740, "componentType" : 5123, "count" : 6, "type" : "SCALAR", "max" : [5], "min" : [0]}, {"bufferView" : 18, "byteOffset" : 0, "componentType" : 5126, "count" : 6, "type" : "VEC3", "max" : [2.8876456432312897E-15, -0.25999999046325684, 0.08829915523529053], "min" : [-0.12999999523162842, -0.25999999046325684, -0.11649581044912338], "name" : "POSITION"}, {"bufferView" : 18, "byteOffset" : 12, "componentType" : 5126, "count" : 6, "type" : "VEC3", "max" : [0, -1.0000044107437134, -0], "min" : [0, -1.0000044107437134, -0], "name" : "NORMAL"}, {"bufferView" : 18, "byteOffset" : 24, "componentType" : 5126, "count" : 6, "type" : "VEC2", "max" : [5.118110179901123, 4.476345062255859], "min" : [-1.1368683772161603E-13, -3.586449146270752], "name" : "TEXCOORD_0"}], "asset" : {"generator" : "Aspose.3D 22.1", "version" : "2.0"}, "buffers" : [{"uri" : "data:application/octet-stream;base64,", "byteLength" : 29860}], "bufferViews" : [{"buffer" : 0, "byteOffset" : 0, "byteLength" : 1752, "target" : 34963}, {"buffer" : 0, "byteOffset" : 1756, "byteLength" : 1344, "byteStride" : 32, "target" : 34962}, {"buffer" : 0, "byteOffset" : 3104, "byteLength" : 384, "byteStride" : 32, "target" : 34962}, {"buffer" : 0, "byteOffset" : 3492, "byteLength" : 960, "byteStride" : 32, "target" : 34962}, {"buffer" : 0, "byteOffset" : 4456, "byteLength" : 1344, "byteStride" : 32, "target" : 34962}, {"buffer" : 0, "byteOffset" : 5804, "byteLength" : 960, "byteStride" : 32, "target" : 34962}, {"buffer" : 0, "byteOffset" : 6768, "byteLength" : 384, "byteStride" : 32, "target" : 34962}, {"buffer" : 0, "byteOffset" : 7156, "byteLength" : 2688, "byteStride" : 32, "target" : 34962}, {"buffer" : 0, "byteOffset" : 9848, "byteLength" : 2112, "byteStride" : 32, "target" : 34962}, {"buffer" : 0, "byteOffset" : 11964, "byteLength" : 2112, "byteStride" : 32, "target" : 34962}, {"buffer" : 0, "byteOffset" : 14080, "byteLength" : 9024, "byteStride" : 32, "target" : 34962}, {"buffer" : 0, "byteOffset" : 23108, "byteLength" : 192, "byteStride" : 32, "target" : 34962}, {"buffer" : 0, "byteOffset" : 23304, "byteLength" : 384, "byteStride" : 32, "target" : 34962}, {"buffer" : 0, "byteOffset" : 23692, "byteLength" : 960, "byteStride" : 32, "target" : 34962}, {"buffer" : 0, "byteOffset" : 24656, "byteLength" : 1920, "byteStride" : 32, "target" : 34962}, {"buffer" : 0, "byteOffset" : 26580, "byteLength" : 192, "byteStride" : 32, "target" : 34962}, {"buffer" : 0, "byteOffset" : 26776, "byteLength" : 1920, "byteStride" : 32, "target" : 34962}, {"buffer" : 0, "byteOffset" : 28700, "byteLength" : 960, "byteStride" : 32, "target" : 34962}, {"buffer" : 0, "byteOffset" : 29664, "byteLength" : 192, "byteStride" : 32, "target" : 34962}], "materials" : [{"name" : "crystal", "pbrMetallicRoughness" : {"baseColorFactor" : [0.186231777, 0.8773585, 0.593436241, 1], "metallicFactor" : 1, "roughnessFactor" : 1}, "emissiveFactor" : [0, 0, 0], "alphaMode" : "OPAQUE", "doubleSided" : false}, {"name" : "metal", "pbrMetallicRoughness" : {"baseColorFactor" : [0.843137264, 0.870588243, 0.9098039, 1], "metallicFactor" : 1, "roughnessFactor" : 1}, "emissiveFactor" : [0, 0, 0], "alphaMode" : "OPAQUE", "doubleSided" : false}, {"name" : "metalRed", "pbrMetallicRoughness" : {"baseColorFactor" : [1, 0.628524244, 0.2028302, 1], "metallicFactor" : 1, "roughnessFactor" : 1}, "emissiveFactor" : [0, 0, 0], "alphaMode" : "OPAQUE", "doubleSided" : false}, {"name" : "crystal", "pbrMetallicRoughness" : {"baseColorFactor" : [0.186231777, 0.8773585, 0.593436241, 1], "metallicFactor" : 1, "roughnessFactor" : 1}, "emissiveFactor" : [0, 0, 0], "alphaMode" : "OPAQUE", "doubleSided" : false}, {"name" : "metalRed", "pbrMetallicRoughness" : {"baseColorFactor" : [1, 0.628524244, 0.2028302, 1], "metallicFactor" : 1, "roughnessFactor" : 1}, "emissiveFactor" : [0, 0, 0], "alphaMode" : "OPAQUE", "doubleSided" : false}, {"name" : "metal", "pbrMetallicRoughness" : {"baseColorFactor" : [0.843137264, 0.870588243, 0.9098039, 1], "metallicFactor" : 1, "roughnessFactor" : 1}, "emissiveFactor" : [0, 0, 0], "alphaMode" : "OPAQUE", "doubleSided" : false}, {"name" : "metalDark", "pbrMetallicRoughness" : {"baseColorFactor" : [0.6750623, 0.7100219, 0.7735849, 1], "metallicFactor" : 1, "roughnessFactor" : 1}, "emissiveFactor" : [0, 0, 0], "alphaMode" : "OPAQUE", "doubleSided" : false}, {"name" : "metal", "pbrMetallicRoughness" : {"baseColorFactor" : [0.843137264, 0.870588243, 0.9098039, 1], "metallicFactor" : 1, "roughnessFactor" : 1}, "emissiveFactor" : [0, 0, 0], "alphaMode" : "OPAQUE", "doubleSided" : false}, {"name" : "metalRed", "pbrMetallicRoughness" : {"baseColorFactor" : [1, 0.628524244, 0.2028302, 1], "metallicFactor" : 1, "roughnessFactor" : 1}, "emissiveFactor" : [0, 0, 0], "alphaMode" : "OPAQUE", "doubleSided" : false}, {"name" : "crystal", "pbrMetallicRoughness" : {"baseColorFactor" : [0.186231777, 0.8773585, 0.593436241, 1], "metallicFactor" : 1, "roughnessFactor" : 1}, "emissiveFactor" : [0, 0, 0], "alphaMode" : "OPAQUE", "doubleSided" : false}, {"name" : "dark", "pbrMetallicRoughness" : {"baseColorFactor" : [0.274509817, 0.298039228, 0.34117648, 1], "metallicFactor" : 1, "roughnessFactor" : 1}, "emissiveFactor" : [0, 0, 0], "alphaMode" : "OPAQUE", "doubleSided" : false}, {"name" : "metal", "pbrMetallicRoughness" : {"baseColorFactor" : [0.843137264, 0.870588243, 0.9098039, 1], "metallicFactor" : 1, "roughnessFactor" : 1}, "emissiveFactor" : [0, 0, 0], "alphaMode" : "OPAQUE", "doubleSided" : false}, {"name" : "metalDark", "pbrMetallicRoughness" : {"baseColorFactor" : [0.6750623, 0.7100219, 0.7735849, 1], "metallicFactor" : 1, "roughnessFactor" : 1}, "emissiveFactor" : [0, 0, 0], "alphaMode" : "OPAQUE", "doubleSided" : false}, {"name" : "dark", "pbrMetallicRoughness" : {"baseColorFactor" : [0.274509817, 0.298039228, 0.34117648, 1], "metallicFactor" : 1, "roughnessFactor" : 1}, "emissiveFactor" : [0, 0, 0], "alphaMode" : "OPAQUE", "doubleSided" : false}, {"name" : "metal", "pbrMetallicRoughness" : {"baseColorFactor" : [0.843137264, 0.870588243, 0.9098039, 1], "metallicFactor" : 1, "roughnessFactor" : 1}, "emissiveFactor" : [0, 0, 0], "alphaMode" : "OPAQUE", "doubleSided" : false}, {"name" : "dark", "pbrMetallicRoughness" : {"baseColorFactor" : [0.274509817, 0.298039228, 0.34117648, 1], "metallicFactor" : 1, "roughnessFactor" : 1}, "emissiveFactor" : [0, 0, 0], "alphaMode" : "OPAQUE", "doubleSided" : false}, {"name" : "metalDark", "pbrMetallicRoughness" : {"baseColorFactor" : [0.6750623, 0.7100219, 0.7735849, 1], "metallicFactor" : 1, "roughnessFactor" : 1}, "emissiveFactor" : [0, 0, 0], "alphaMode" : "OPAQUE", "doubleSided" : false}, {"name" : "metal", "pbrMetallicRoughness" : {"baseColorFactor" : [0.843137264, 0.870588243, 0.9098039, 1], "metallicFactor" : 1, "roughnessFactor" : 1}, "emissiveFactor" : [0, 0, 0], "alphaMode" : "OPAQUE", "doubleSided" : false}], "meshes" : [{"primitives" : [{"attributes" : {"POSITION" : 1, "NORMAL" : 2, "TEXCOORD_0" : 3}, "indices" : 0, "material" : 0, "mode" : 4}, {"attributes" : {"POSITION" : 5, "NORMAL" : 6, "TEXCOORD_0" : 7}, "indices" : 4, "material" : 1, "mode" : 4}, {"attributes" : {"POSITION" : 9, "NORMAL" : 10, "TEXCOORD_0" : 11}, "indices" : 8, "material" : 2, "mode" : 4}]}, {"primitives" : [{"attributes" : {"POSITION" : 13, "NORMAL" : 14, "TEXCOORD_0" : 15}, "indices" : 12, "material" : 3, "mode" : 4}, {"attributes" : {"POSITION" : 17, "NORMAL" : 18, "TEXCOORD_0" : 19}, "indices" : 16, "material" : 4, "mode" : 4}, {"attributes" : {"POSITION" : 21, "NORMAL" : 22, "TEXCOORD_0" : 23}, "indices" : 20, "material" : 5, "mode" : 4}]}, {"primitives" : [{"attributes" : {"POSITION" : 25, "NORMAL" : 26, "TEXCOORD_0" : 27}, "indices" : 24, "material" : 6, "mode" : 4}, {"attributes" : {"POSITION" : 29, "NORMAL" : 30, "TEXCOORD_0" : 31}, "indices" : 28, "material" : 7, "mode" : 4}, {"attributes" : {"POSITION" : 33, "NORMAL" : 34, "TEXCOORD_0" : 35}, "indices" : 32, "material" : 8, "mode" : 4}]}, {"primitives" : [{"attributes" : {"POSITION" : 37, "NORMAL" : 38, "TEXCOORD_0" : 39}, "indices" : 36, "material" : 9, "mode" : 4}, {"attributes" : {"POSITION" : 41, "NORMAL" : 42, "TEXCOORD_0" : 43}, "indices" : 40, "material" : 10, "mode" : 4}, {"attributes" : {"POSITION" : 45, "NORMAL" : 46, "TEXCOORD_0" : 47}, "indices" : 44, "material" : 11, "mode" : 4}]}, {"primitives" : [{"attributes" : {"POSITION" : 49, "NORMAL" : 50, "TEXCOORD_0" : 51}, "indices" : 48, "material" : 12, "mode" : 4}, {"attributes" : {"POSITION" : 53, "NORMAL" : 54, "TEXCOORD_0" : 55}, "indices" : 52, "material" : 13, "mode" : 4}, {"attributes" : {"POSITION" : 57, "NORMAL" : 58, "TEXCOORD_0" : 59}, "indices" : 56, "material" : 14, "mode" : 4}]}, {"primitives" : [{"attributes" : {"POSITION" : 61, "NORMAL" : 62, "TEXCOORD_0" : 63}, "indices" : 60, "material" : 15, "mode" : 4}, {"attributes" : {"POSITION" : 65, "NORMAL" : 66, "TEXCOORD_0" : 67}, "indices" : 64, "material" : 16, "mode" : 4}, {"attributes" : {"POSITION" : 69, "NORMAL" : 70, "TEXCOORD_0" : 71}, "indices" : 68, "material" : 17, "mode" : 4}]}], "nodes" : [{"matrix" : [0.8584, 0, 0, 0, 0, 0.8584, 0, 0, 0, 0, 0.8584, 0, -0.13, 0.473184, 0, 1], "mesh" : 0, "name" : "armLeft"}, {"matrix" : [1, 0, 0, 0, 0, 1, 0, 0, 0, 0, 1, 0, 0.130000114, 0.473184, 0, 1], "mesh" : 1, "name" : "armRight"}, {"matrix" : [1, 0, 0, 0, 0, 1, 0, 0, 0, 0, 1, 0, 0, 0.223184, 0, 1], "mesh" : 2, "name" : "body"}, {"matrix" : [0.26, 0, 0, 0, 0, 0.26, 0, 0, 0, 0, 0.26, 0, 0, 0.48318398, 0, 1], "mesh" : 3, "name" : "head"}, {"matrix" : [1, 0, 0, 0, 0, 1, 0, 0, 0, 0, 1, 0, -0.13, 0.223184, 0, 1], "mesh" : 4, "name" : "legLeft"}, {"matrix" : [0.8584, 0, 0, 0, 0, 0.8584, 0, 0, 0, 0, 0.8584, 0, 0.130000114, 0.223184, 0, 1], "mesh" : 5, "name" : "legRight"}, {"children" : [0, 1, 2, 3, 4, 5], "matrix" : [1, 0, 0, 0, 0, 1, 0, 0, 0, 0, 1, 0, 2, 0, 1.5, 1], "name" : "alien"}], "scene" : 0, "scenes" : [{"nodes" : [6]}]}