{"accessors" : [{"bufferView" : 0, "byteOffset" : 0, "componentType" : 5123, "count" : 150, "type" : "SCALAR", "max" : [144], "min" : [0]}, {"bufferView" : 1, "byteOffset" : 0, "componentType" : 5126, "count" : 145, "type" : "VEC3", "max" : [0.44999998807907104, 0.5, 0.9128352403640747], "min" : [-0.44999998807907104, 0.10000000149011612, -0.08716470748186111], "name" : "POSITION"}, {"bufferView" : 1, "byteOffset" : 12, "componentType" : 5126, "count" : 145, "type" : "VEC3", "max" : [1.0000044107437134, 1.0000044107437134, 1.0000044107437134], "min" : [-1.0000044107437134, 0, -1.0000044107437134], "name" : "NORMAL"}, {"bufferView" : 1, "byteOffset" : 24, "componentType" : 5126, "count" : 145, "type" : "VEC2", "max" : [20.190366744995117, 18.685039520263672], "min" : [-20.190366744995117, -21.190366744995117], "name" : "TEXCOORD_0"}, {"bufferView" : 0, "byteOffset" : 300, "componentType" : 5123, "count" : 210, "type" : "SCALAR", "max" : [201], "min" : [0]}, {"bufferView" : 2, "byteOffset" : 0, "componentType" : 5126, "count" : 202, "type" : "VEC3", "max" : [0.6000000238418579, 0.699999988079071, 0.9128352403640747], "min" : [-0.6000000238418579, 0, -0.6871646642684937], "name" : "POSITION"}, {"bufferView" : 2, "byteOffset" : 12, "componentType" : 5126, "count" : 202, "type" : "VEC3", "max" : [1.0000044107437134, 1.0000044107437134, 1.0000044107437134], "min" : [-1.0000044107437134, -1.0000044107437134, -1.0000044107437134], "name" : "NORMAL"}, {"bufferView" : 2, "byteOffset" : 24, "componentType" : 5126, "count" : 202, "type" : "VEC2", "max" : [35.93839645385742, 26.55905532836914], "min" : [-35.93839645385742, -36.93839645385742], "name" : "TEXCOORD_0"}, {"bufferView" : 0, "byteOffset" : 720, "componentType" : 5123, "count" : 114, "type" : "SCALAR", "max" : [113], "min" : [0]}, {"bufferView" : 3, "byteOffset" : 0, "componentType" : 5126, "count" : 114, "type" : "VEC3", "max" : [0.5292893052101135, 0.6900496482849121, 0.9128352403640747], "min" : [-0.5292893052101135, 0.10000000149011612, -1.0128352642059326], "name" : "POSITION"}, {"bufferView" : 3, "byteOffset" : 12, "componentType" : 5126, "count" : 114, "type" : "VEC3", "max" : [1.0000044107437134, 1.0000044107437134, 1.0000044107437134], "min" : [-1.0000044107437134, -1.0000044107437134, -1.0000044107437134], "name" : "NORMAL"}, {"bufferView" : 3, "byteOffset" : 24, "componentType" : 5126, "count" : 114, "type" : "VEC2", "max" : [35.93839645385742, 15.395828247070312], "min" : [-35.93839645385742, -36.93839645385742], "name" : "TEXCOORD_0"}, {"bufferView" : 0, "byteOffset" : 948, "componentType" : 5123, "count" : 366, "type" : "SCALAR", "max" : [339], "min" : [0]}, {"bufferView" : 4, "byteOffset" : 0, "componentType" : 5126, "count" : 340, "type" : "VEC3", "max" : [0.6000000238418579, 0.75, 1.0128352642059326], "min" : [-0.6000000238418579, 0, -1.0128352642059326], "name" : "POSITION"}, {"bufferView" : 4, "byteOffset" : 12, "componentType" : 5126, "count" : 340, "type" : "VEC3", "max" : [1.0000044107437134, 1.0000044107437134, 1.0000044107437134], "min" : [-1.0000044107437134, -1.0000044107437134, -1.0000044107437134], "name" : "NORMAL"}, {"bufferView" : 4, "byteOffset" : 24, "componentType" : 5126, "count" : 340, "type" : "VEC2", "max" : [39.875404357910156, 43.91407012939453], "min" : [-39.875404357910156, -40.875404357910156], "name" : "TEXCOORD_0"}], "asset" : {"generator" : "Aspose.3D 22.1", "version" : "2.0"}, "buffers" : [{"uri" : "data:application/octet-stream;base64,", "byteLength" : 28580}], "bufferViews" : [{"buffer" : 0, "byteOffset" : 0, "byteLength" : 1680, "target" : 34963}, {"buffer" : 0, "byteOffset" : 1684, "byteLength" : 4800, "byteStride" : 32, "target" : 34962}, {"buffer" : 0, "byteOffset" : 6488, "byteLength" : 6720, "byteStride" : 32, "target" : 34962}, {"buffer" : 0, "byteOffset" : 13212, "byteLength" : 3648, "byteStride" : 32, "target" : 34962}, {"buffer" : 0, "byteOffset" : 16864, "byteLength" : 11712, "byteStride" : 32, "target" : 34962}], "materials" : [{"name" : "metal", "pbrMetallicRoughness" : {"baseColorFactor" : [0.843137264, 0.870588243, 0.9098039, 1], "metallicFactor" : 1, "roughnessFactor" : 1}, "emissiveFactor" : [0, 0, 0], "alphaMode" : "OPAQUE", "doubleSided" : false}, {"name" : "metalDark", "pbrMetallicRoughness" : {"baseColorFactor" : [0.6750623, 0.7100219, 0.7735849, 1], "metallicFactor" : 1, "roughnessFactor" : 1}, "emissiveFactor" : [0, 0, 0], "alphaMode" : "OPAQUE", "doubleSided" : false}, {"name" : "dark", "pbrMetallicRoughness" : {"baseColorFactor" : [0.274509817, 0.298039228, 0.34117648, 1], "metallicFactor" : 1, "roughnessFactor" : 1}, "emissiveFactor" : [0, 0, 0], "alphaMode" : "OPAQUE", "doubleSided" : false}, {"name" : "metalRed", "pbrMetallicRoughness" : {"baseColorFactor" : [1, 0.628524244, 0.2028302, 1], "metallicFactor" : 1, "roughnessFactor" : 1}, "emissiveFactor" : [0, 0, 0], "alphaMode" : "OPAQUE", "doubleSided" : false}], "meshes" : [{"primitives" : [{"attributes" : {"POSITION" : 1, "NORMAL" : 2, "TEXCOORD_0" : 3}, "indices" : 0, "material" : 0, "mode" : 4}, {"attributes" : {"POSITION" : 5, "NORMAL" : 6, "TEXCOORD_0" : 7}, "indices" : 4, "material" : 1, "mode" : 4}, {"attributes" : {"POSITION" : 9, "NORMAL" : 10, "TEXCOORD_0" : 11}, "indices" : 8, "material" : 2, "mode" : 4}, {"attributes" : {"POSITION" : 13, "NORMAL" : 14, "TEXCOORD_0" : 15}, "indices" : 12, "material" : 3, "mode" : 4}]}], "nodes" : [{"matrix" : [1, 0, 0, 0, 0, 1, 0, 0, 0, 0, 1, 0, 2, 0, 1.5, 1], "mesh" : 0, "name" : "craft_racer"}], "scene" : 0, "scenes" : [{"nodes" : [0]}]}