{"accessors" : [{"bufferView" : 0, "byteOffset" : 0, "componentType" : 5123, "count" : 78, "type" : "SCALAR", "max" : [77], "min" : [0]}, {"bufferView" : 1, "byteOffset" : 0, "componentType" : 5126, "count" : 78, "type" : "VEC3", "max" : [0.5, 0.6900496482849121, 1.2999999523162842], "min" : [-0.5, 0.20000000298023224, -0.3256705701351166], "name" : "POSITION"}, {"bufferView" : 1, "byteOffset" : 12, "componentType" : 5126, "count" : 78, "type" : "VEC3", "max" : [1.0000044107437134, 1.0000044107437134, 1.0000044107437134], "min" : [-1.0000044107437134, -1.0000044107437134, -0.998097836971283], "name" : "NORMAL"}, {"bufferView" : 1, "byteOffset" : 24, "componentType" : 5126, "count" : 78, "type" : "VEC2", "max" : [51.18110275268555, 21.605180740356445], "min" : [-51.18110275268555, -52.18110275268555], "name" : "TEXCOORD_0"}, {"bufferView" : 0, "byteOffset" : 156, "componentType" : 5123, "count" : 396, "type" : "SCALAR", "max" : [376], "min" : [0]}, {"bufferView" : 2, "byteOffset" : 0, "componentType" : 5126, "count" : 377, "type" : "VEC3", "max" : [0.6894426941871643, 0.699999988079071, 1.2999999523162842], "min" : [-0.6894426941871643, 0, -1], "name" : "POSITION"}, {"bufferView" : 2, "byteOffset" : 12, "componentType" : 5126, "count" : 377, "type" : "VEC3", "max" : [1.0000044107437134, 1.0000044107437134, 1.0000044107437134], "min" : [-1.0000044107437134, -1.0000044107437134, -1.0000044107437134], "name" : "NORMAL"}, {"bufferView" : 2, "byteOffset" : 24, "componentType" : 5126, "count" : 377, "type" : "VEC2", "max" : [51.18110275268555, 51.28963088989258], "min" : [-51.18110275268555, -52.18110275268555], "name" : "TEXCOORD_0"}, {"bufferView" : 0, "byteOffset" : 948, "componentType" : 5123, "count" : 330, "type" : "SCALAR", "max" : [318], "min" : [0]}, {"bufferView" : 3, "byteOffset" : 0, "componentType" : 5126, "count" : 319, "type" : "VEC3", "max" : [0.6000000238418579, 0.6000000238418579, 1.2999999523162842], "min" : [-0.6000000238418579, 0.10000000149011612, -1.2999999523162842], "name" : "POSITION"}, {"bufferView" : 3, "byteOffset" : 12, "componentType" : 5126, "count" : 319, "type" : "VEC3", "max" : [1.0000044107437134, 1.0000044107437134, 1.0000044107437134], "min" : [-1.0000044107437134, -1.0000044107437134, -1.0000044107437134], "name" : "NORMAL"}, {"bufferView" : 3, "byteOffset" : 24, "componentType" : 5126, "count" : 319, "type" : "VEC2", "max" : [51.18110275268555, 50.49473571777344], "min" : [-51.18110275268555, -51.18693542480469], "name" : "TEXCOORD_0"}, {"bufferView" : 0, "byteOffset" : 1608, "componentType" : 5123, "count" : 348, "type" : "SCALAR", "max" : [333], "min" : [0]}, {"bufferView" : 4, "byteOffset" : 0, "componentType" : 5126, "count" : 334, "type" : "VEC3", "max" : [0.8999999761581421, 0.699999988079071, 0.8999999761581421], "min" : [-0.8999999761581421, 0, -1], "name" : "POSITION"}, {"bufferView" : 4, "byteOffset" : 12, "componentType" : 5126, "count" : 334, "type" : "VEC3", "max" : [1.0000044107437134, 1.0000044107437134, 1.0000044107437134], "min" : [-1.0000044107437134, -1.0000044107437134, -1.0000044107437134], "name" : "NORMAL"}, {"bufferView" : 4, "byteOffset" : 24, "componentType" : 5126, "count" : 334, "type" : "VEC2", "max" : [40.49571990966797, 38.64277267456055], "min" : [-40.49571990966797, -39.3349723815918], "name" : "TEXCOORD_0"}], "asset" : {"generator" : "Aspose.3D 22.1", "version" : "2.0"}, "buffers" : [{"uri" : "data:application/octet-stream;base64,", "byteLength" : 39188}], "bufferViews" : [{"buffer" : 0, "byteOffset" : 0, "byteLength" : 2304, "target" : 34963}, {"buffer" : 0, "byteOffset" : 2308, "byteLength" : 2496, "byteStride" : 32, "target" : 34962}, {"buffer" : 0, "byteOffset" : 4808, "byteLength" : 12672, "byteStride" : 32, "target" : 34962}, {"buffer" : 0, "byteOffset" : 17484, "byteLength" : 10560, "byteStride" : 32, "target" : 34962}, {"buffer" : 0, "byteOffset" : 28048, "byteLength" : 11136, "byteStride" : 32, "target" : 34962}], "materials" : [{"name" : "dark", "pbrMetallicRoughness" : {"baseColorFactor" : [0.274509817, 0.298039228, 0.34117648, 1], "metallicFactor" : 1, "roughnessFactor" : 1}, "emissiveFactor" : [0, 0, 0], "alphaMode" : "OPAQUE", "doubleSided" : false}, {"name" : "metalDark", "pbrMetallicRoughness" : {"baseColorFactor" : [0.6750623, 0.7100219, 0.7735849, 1], "metallicFactor" : 1, "roughnessFactor" : 1}, "emissiveFactor" : [0, 0, 0], "alphaMode" : "OPAQUE", "doubleSided" : false}, {"name" : "metal", "pbrMetallicRoughness" : {"baseColorFactor" : [0.843137264, 0.870588243, 0.9098039, 1], "metallicFactor" : 1, "roughnessFactor" : 1}, "emissiveFactor" : [0, 0, 0], "alphaMode" : "OPAQUE", "doubleSided" : false}, {"name" : "metalRed", "pbrMetallicRoughness" : {"baseColorFactor" : [1, 0.628524244, 0.2028302, 1], "metallicFactor" : 1, "roughnessFactor" : 1}, "emissiveFactor" : [0, 0, 0], "alphaMode" : "OPAQUE", "doubleSided" : false}], "meshes" : [{"primitives" : [{"attributes" : {"POSITION" : 1, "NORMAL" : 2, "TEXCOORD_0" : 3}, "indices" : 0, "material" : 0, "mode" : 4}, {"attributes" : {"POSITION" : 5, "NORMAL" : 6, "TEXCOORD_0" : 7}, "indices" : 4, "material" : 1, "mode" : 4}, {"attributes" : {"POSITION" : 9, "NORMAL" : 10, "TEXCOORD_0" : 11}, "indices" : 8, "material" : 2, "mode" : 4}, {"attributes" : {"POSITION" : 13, "NORMAL" : 14, "TEXCOORD_0" : 15}, "indices" : 12, "material" : 3, "mode" : 4}]}], "nodes" : [{"matrix" : [1, 0, 0, 0, 0, 1, 0, 0, 0, 0, 1, 0, 2, 0, 1.5, 1], "mesh" : 0, "name" : "craft_miner"}], "scene" : 0, "scenes" : [{"nodes" : [0]}]}